<?xml version="1.0" encoding="us-ascii" standalone="no"?><svg xmlns="http://www.w3.org/2000/svg" xmlns:xlink="http://www.w3.org/1999/xlink" contentStyleType="text/css" height="694px" preserveAspectRatio="none" style="width:1044px;height:694px;background:#FFFFFF;" version="1.1" viewBox="0 0 1044 694" width="1044px" zoomAndPan="magnify"><defs/><g><!--class User--><g id="elem_User"><rect codeLine="2" fill="#F1F1F1" height="153.6563" id="User" rx="2.5" ry="2.5" style="stroke:#181818;stroke-width:0.5;" width="226" x="7" y="168"/><ellipse cx="101.25" cy="184" fill="#ADD1B2" rx="11" ry="11" style="stroke:#181818;stroke-width:1.0;"/><path d="M100.1094,184.7969 L100.1094,187.2969 L104.4375,187.2969 L104.4375,186.375 Q104.4375,185.7656 104.6797,185.5 Q104.9219,185.2344 105.2969,185.2344 Q105.6719,185.2344 105.9063,185.5 Q106.1406,185.7656 106.1406,186.375 L106.1406,189 L98.1406,189 Q97.5156,189 97.2578,188.7656 Q97,188.5313 97,188.1406 Q97,187.7656 97.2656,187.5313 Q97.5313,187.2969 98.1406,187.2969 L98.4063,187.2969 L98.4063,180.6406 L98.1406,180.6406 Q97.5156,180.6406 97.2578,180.4063 Q97,180.1719 97,179.7813 Q97,179.4063 97.2578,179.1719 Q97.5156,178.9375 98.1406,178.9375 L105.7656,178.9375 L105.7656,181.5313 Q105.7656,182.1406 105.5391,182.3984 Q105.3125,182.6563 104.9219,182.6563 Q104.5469,182.6563 104.3125,182.3984 Q104.0781,182.1406 104.0781,181.5313 L104.0781,180.6406 L100.1094,180.6406 L100.1094,183.0938 L101.5938,183.0938 Q101.5938,182.4375 101.7188,182.25 Q101.9844,181.8438 102.4531,181.8438 Q102.8281,181.8438 103.0625,182.1016 Q103.2969,182.3594 103.2969,182.9688 L103.2969,184.9375 Q103.2969,185.4844 103.1719,185.6719 Q102.9063,186.0625 102.4531,186.0625 Q101.9844,186.0625 101.7188,185.6563 Q101.5938,185.4688 101.5938,184.7969 L100.1094,184.7969 Z " fill="#000000"/><text fill="#000000" font-family="sans-serif" font-size="14" lengthAdjust="spacing" textLength="29" x="121.75" y="189.7285">User</text><line style="stroke:#181818;stroke-width:0.5;" x1="8" x2="232" y1="200" y2="200"/><text fill="#000000" font-family="sans-serif" font-size="14" lengthAdjust="spacing" textLength="214" x="13" y="218.5332">user_id [PK] [AUTO_INCREMENT]</text><line style="stroke:#181818;stroke-width:1.0;" x1="8" x2="232" y1="225.6094" y2="225.6094"/><text fill="#000000" font-family="sans-serif" font-size="14" lengthAdjust="spacing" textLength="66" x="13" y="244.1426">FIO: string</text><text fill="#000000" font-family="sans-serif" font-size="14" lengthAdjust="spacing" textLength="106" x="13" y="261.752">Is_Stuff: boolean</text><text fill="#000000" font-family="sans-serif" font-size="14" lengthAdjust="spacing" textLength="76" x="13" y="279.3613">email: string</text><text fill="#000000" font-family="sans-serif" font-size="14" lengthAdjust="spacing" textLength="142" x="13" y="296.9707">password: varchar(20)</text><text fill="#000000" font-family="sans-serif" font-size="14" lengthAdjust="spacing" textLength="75" x="13" y="314.5801">avatar: blob</text></g><!--class Order--><g id="elem_Order"><rect codeLine="12" fill="#F1F1F1" height="161.6563" id="Order" rx="2.5" ry="2.5" style="stroke:#181818;stroke-width:0.5;" width="270" x="127" y="382"/><ellipse cx="239.25" cy="398" fill="#ADD1B2" rx="11" ry="11" style="stroke:#181818;stroke-width:1.0;"/><path d="M238.1094,398.7969 L238.1094,401.2969 L242.4375,401.2969 L242.4375,400.375 Q242.4375,399.7656 242.6797,399.5 Q242.9219,399.2344 243.2969,399.2344 Q243.6719,399.2344 243.9063,399.5 Q244.1406,399.7656 244.1406,400.375 L244.1406,403 L236.1406,403 Q235.5156,403 235.2578,402.7656 Q235,402.5313 235,402.1406 Q235,401.7656 235.2656,401.5313 Q235.5313,401.2969 236.1406,401.2969 L236.4063,401.2969 L236.4063,394.6406 L236.1406,394.6406 Q235.5156,394.6406 235.2578,394.4063 Q235,394.1719 235,393.7813 Q235,393.4063 235.2578,393.1719 Q235.5156,392.9375 236.1406,392.9375 L243.7656,392.9375 L243.7656,395.5313 Q243.7656,396.1406 243.5391,396.3984 Q243.3125,396.6563 242.9219,396.6563 Q242.5469,396.6563 242.3125,396.3984 Q242.0781,396.1406 242.0781,395.5313 L242.0781,394.6406 L238.1094,394.6406 L238.1094,397.0938 L239.5938,397.0938 Q239.5938,396.4375 239.7188,396.25 Q239.9844,395.8438 240.4531,395.8438 Q240.8281,395.8438 241.0625,396.1016 Q241.2969,396.3594 241.2969,396.9688 L241.2969,398.9375 Q241.2969,399.4844 241.1719,399.6719 Q240.9063,400.0625 240.4531,400.0625 Q239.9844,400.0625 239.7188,399.6563 Q239.5938,399.4688 239.5938,398.7969 L238.1094,398.7969 Z " fill="#000000"/><text fill="#000000" font-family="sans-serif" font-size="14" lengthAdjust="spacing" textLength="37" x="259.75" y="403.7285">Order</text><line style="stroke:#181818;stroke-width:0.5;" x1="128" x2="396" y1="414" y2="414"/><text fill="#000000" font-family="sans-serif" font-size="14" lengthAdjust="spacing" textLength="258" x="133" y="432.5332">order_id: bigint[PK] [AUTO_INCREMENT]</text><line style="stroke:#181818;stroke-width:1.0;" x1="128" x2="396" y1="439.6094" y2="439.6094"/><text fill="#000000" font-family="sans-serif" font-size="14" lengthAdjust="spacing" textLength="113" x="133" y="458.1426">order_date: string</text><text fill="#000000" font-family="sans-serif" font-size="14" lengthAdjust="spacing" textLength="81" x="133" y="475.752">status: string</text><text fill="#000000" font-family="sans-serif" font-size="14" lengthAdjust="spacing" textLength="171" x="133" y="493.3613">order_price: decimal(10, 2)</text><line style="stroke:#181818;stroke-width:1.0;" x1="128" x2="396" y1="500.4375" y2="500.4375"/><text fill="#000000" font-family="sans-serif" font-size="14" lengthAdjust="spacing" textLength="77" x="133" y="518.9707">user_id [FK]</text><text fill="#000000" font-family="sans-serif" font-size="14" lengthAdjust="spacing" textLength="235" x="133" y="536.5801">delivery_id [FK] [AUTO_INCREMENT]</text></g><!--class Inventary--><g id="elem_Inventary"><rect codeLine="22" fill="#F1F1F1" height="100.8281" id="Inventary" rx="2.5" ry="2.5" style="stroke:#181818;stroke-width:0.5;" width="282" x="755" y="412.5"/><ellipse cx="862.75" cy="428.5" fill="#ADD1B2" rx="11" ry="11" style="stroke:#181818;stroke-width:1.0;"/><path d="M861.6094,429.2969 L861.6094,431.7969 L865.9375,431.7969 L865.9375,430.875 Q865.9375,430.2656 866.1797,430 Q866.4219,429.7344 866.7969,429.7344 Q867.1719,429.7344 867.4063,430 Q867.6406,430.2656 867.6406,430.875 L867.6406,433.5 L859.6406,433.5 Q859.0156,433.5 858.7578,433.2656 Q858.5,433.0313 858.5,432.6406 Q858.5,432.2656 858.7656,432.0313 Q859.0313,431.7969 859.6406,431.7969 L859.9063,431.7969 L859.9063,425.1406 L859.6406,425.1406 Q859.0156,425.1406 858.7578,424.9063 Q858.5,424.6719 858.5,424.2813 Q858.5,423.9063 858.7578,423.6719 Q859.0156,423.4375 859.6406,423.4375 L867.2656,423.4375 L867.2656,426.0313 Q867.2656,426.6406 867.0391,426.8984 Q866.8125,427.1563 866.4219,427.1563 Q866.0469,427.1563 865.8125,426.8984 Q865.5781,426.6406 865.5781,426.0313 L865.5781,425.1406 L861.6094,425.1406 L861.6094,427.5938 L863.0938,427.5938 Q863.0938,426.9375 863.2188,426.75 Q863.4844,426.3438 863.9531,426.3438 Q864.3281,426.3438 864.5625,426.6016 Q864.7969,426.8594 864.7969,427.4688 L864.7969,429.4375 Q864.7969,429.9844 864.6719,430.1719 Q864.4063,430.5625 863.9531,430.5625 Q863.4844,430.5625 863.2188,430.1563 Q863.0938,429.9688 863.0938,429.2969 L861.6094,429.2969 Z " fill="#000000"/><text fill="#000000" font-family="sans-serif" font-size="14" lengthAdjust="spacing" textLength="58" x="883.25" y="434.2285">Inventary</text><line style="stroke:#181818;stroke-width:0.5;" x1="756" x2="1036" y1="444.5" y2="444.5"/><text fill="#000000" font-family="sans-serif" font-size="14" lengthAdjust="spacing" textLength="270" x="761" y="463.0332">invent_id: bigint  [PK] [AUTO_INCREMENT]</text><line style="stroke:#181818;stroke-width:1.0;" x1="756" x2="1036" y1="470.1094" y2="470.1094"/><text fill="#000000" font-family="sans-serif" font-size="14" lengthAdjust="spacing" textLength="78" x="761" y="488.6426">name: string</text><text fill="#000000" font-family="sans-serif" font-size="14" lengthAdjust="spacing" textLength="86" x="761" y="506.252">adress: string</text></g><!--class Delivery--><g id="elem_Delivery"><rect codeLine="28" fill="#F1F1F1" height="144.0469" id="Delivery" rx="2.5" ry="2.5" style="stroke:#181818;stroke-width:0.5;" width="272" x="268" y="173"/><ellipse cx="374.25" cy="189" fill="#ADD1B2" rx="11" ry="11" style="stroke:#181818;stroke-width:1.0;"/><path d="M373.1094,189.7969 L373.1094,192.2969 L377.4375,192.2969 L377.4375,191.375 Q377.4375,190.7656 377.6797,190.5 Q377.9219,190.2344 378.2969,190.2344 Q378.6719,190.2344 378.9063,190.5 Q379.1406,190.7656 379.1406,191.375 L379.1406,194 L371.1406,194 Q370.5156,194 370.2578,193.7656 Q370,193.5313 370,193.1406 Q370,192.7656 370.2656,192.5313 Q370.5313,192.2969 371.1406,192.2969 L371.4063,192.2969 L371.4063,185.6406 L371.1406,185.6406 Q370.5156,185.6406 370.2578,185.4063 Q370,185.1719 370,184.7813 Q370,184.4063 370.2578,184.1719 Q370.5156,183.9375 371.1406,183.9375 L378.7656,183.9375 L378.7656,186.5313 Q378.7656,187.1406 378.5391,187.3984 Q378.3125,187.6563 377.9219,187.6563 Q377.5469,187.6563 377.3125,187.3984 Q377.0781,187.1406 377.0781,186.5313 L377.0781,185.6406 L373.1094,185.6406 L373.1094,188.0938 L374.5938,188.0938 Q374.5938,187.4375 374.7188,187.25 Q374.9844,186.8438 375.4531,186.8438 Q375.8281,186.8438 376.0625,187.1016 Q376.2969,187.3594 376.2969,187.9688 L376.2969,189.9375 Q376.2969,190.4844 376.1719,190.6719 Q375.9063,191.0625 375.4531,191.0625 Q374.9844,191.0625 374.7188,190.6563 Q374.5938,190.4688 374.5938,189.7969 L373.1094,189.7969 Z " fill="#000000"/><text fill="#000000" font-family="sans-serif" font-size="14" lengthAdjust="spacing" textLength="51" x="394.75" y="194.7285">Delivery</text><line style="stroke:#181818;stroke-width:0.5;" x1="269" x2="539" y1="205" y2="205"/><text fill="#000000" font-family="sans-serif" font-size="14" lengthAdjust="spacing" textLength="235" x="274" y="223.5332">delivery_id [PK] [AUTO_INCREMENT]</text><line style="stroke:#181818;stroke-width:1.0;" x1="269" x2="539" y1="230.6094" y2="230.6094"/><text fill="#000000" font-family="sans-serif" font-size="14" lengthAdjust="spacing" textLength="138" x="274" y="249.1426">delivery_status: string</text><text fill="#000000" font-family="sans-serif" font-size="14" lengthAdjust="spacing" textLength="127" x="274" y="266.752">delivery_type: string</text><text fill="#000000" font-family="sans-serif" font-size="14" lengthAdjust="spacing" textLength="147" x="274" y="284.3613">delivery_date: datetime</text><line style="stroke:#181818;stroke-width:1.0;" x1="269" x2="539" y1="291.4375" y2="291.4375"/><text fill="#000000" font-family="sans-serif" font-size="14" lengthAdjust="spacing" textLength="260" x="274" y="309.9707">path_id: bigint  [FK] [AUTO_INCREMENT]</text></g><!--class Path--><g id="elem_Path"><rect codeLine="37" fill="#F1F1F1" height="100.8281" id="Path" rx="2.5" ry="2.5" style="stroke:#181818;stroke-width:0.5;" width="272" x="268" y="7"/><ellipse cx="385.25" cy="23" fill="#ADD1B2" rx="11" ry="11" style="stroke:#181818;stroke-width:1.0;"/><path d="M384.1094,23.7969 L384.1094,26.2969 L388.4375,26.2969 L388.4375,25.375 Q388.4375,24.7656 388.6797,24.5 Q388.9219,24.2344 389.2969,24.2344 Q389.6719,24.2344 389.9063,24.5 Q390.1406,24.7656 390.1406,25.375 L390.1406,28 L382.1406,28 Q381.5156,28 381.2578,27.7656 Q381,27.5313 381,27.1406 Q381,26.7656 381.2656,26.5313 Q381.5313,26.2969 382.1406,26.2969 L382.4063,26.2969 L382.4063,19.6406 L382.1406,19.6406 Q381.5156,19.6406 381.2578,19.4063 Q381,19.1719 381,18.7813 Q381,18.4063 381.2578,18.1719 Q381.5156,17.9375 382.1406,17.9375 L389.7656,17.9375 L389.7656,20.5313 Q389.7656,21.1406 389.5391,21.3984 Q389.3125,21.6563 388.9219,21.6563 Q388.5469,21.6563 388.3125,21.3984 Q388.0781,21.1406 388.0781,20.5313 L388.0781,19.6406 L384.1094,19.6406 L384.1094,22.0938 L385.5938,22.0938 Q385.5938,21.4375 385.7188,21.25 Q385.9844,20.8438 386.4531,20.8438 Q386.8281,20.8438 387.0625,21.1016 Q387.2969,21.3594 387.2969,21.9688 L387.2969,23.9375 Q387.2969,24.4844 387.1719,24.6719 Q386.9063,25.0625 386.4531,25.0625 Q385.9844,25.0625 385.7188,24.6563 Q385.5938,24.4688 385.5938,23.7969 L384.1094,23.7969 Z " fill="#000000"/><text fill="#000000" font-family="sans-serif" font-size="14" lengthAdjust="spacing" textLength="29" x="405.75" y="28.7285">Path</text><line style="stroke:#181818;stroke-width:0.5;" x1="269" x2="539" y1="39" y2="39"/><text fill="#000000" font-family="sans-serif" font-size="14" lengthAdjust="spacing" textLength="260" x="274" y="57.5332">path_id: bigint  [PK] [AUTO_INCREMENT]</text><line style="stroke:#181818;stroke-width:1.0;" x1="269" x2="539" y1="64.6094" y2="64.6094"/><text fill="#000000" font-family="sans-serif" font-size="14" lengthAdjust="spacing" textLength="76" x="274" y="83.1426">distance: int</text><text fill="#000000" font-family="sans-serif" font-size="14" lengthAdjust="spacing" textLength="146" x="274" y="100.752">date_of_path: datetime</text></g><!--class Product--><g id="elem_Product"><rect codeLine="43" fill="#F1F1F1" height="153.6563" id="Product" rx="2.5" ry="2.5" style="stroke:#181818;stroke-width:0.5;" width="288" x="432" y="386"/><ellipse cx="547.25" cy="402" fill="#ADD1B2" rx="11" ry="11" style="stroke:#181818;stroke-width:1.0;"/><path d="M546.1094,402.7969 L546.1094,405.2969 L550.4375,405.2969 L550.4375,404.375 Q550.4375,403.7656 550.6797,403.5 Q550.9219,403.2344 551.2969,403.2344 Q551.6719,403.2344 551.9063,403.5 Q552.1406,403.7656 552.1406,404.375 L552.1406,407 L544.1406,407 Q543.5156,407 543.2578,406.7656 Q543,406.5313 543,406.1406 Q543,405.7656 543.2656,405.5313 Q543.5313,405.2969 544.1406,405.2969 L544.4063,405.2969 L544.4063,398.6406 L544.1406,398.6406 Q543.5156,398.6406 543.2578,398.4063 Q543,398.1719 543,397.7813 Q543,397.4063 543.2578,397.1719 Q543.5156,396.9375 544.1406,396.9375 L551.7656,396.9375 L551.7656,399.5313 Q551.7656,400.1406 551.5391,400.3984 Q551.3125,400.6563 550.9219,400.6563 Q550.5469,400.6563 550.3125,400.3984 Q550.0781,400.1406 550.0781,399.5313 L550.0781,398.6406 L546.1094,398.6406 L546.1094,401.0938 L547.5938,401.0938 Q547.5938,400.4375 547.7188,400.25 Q547.9844,399.8438 548.4531,399.8438 Q548.8281,399.8438 549.0625,400.1016 Q549.2969,400.3594 549.2969,400.9688 L549.2969,402.9375 Q549.2969,403.4844 549.1719,403.6719 Q548.9063,404.0625 548.4531,404.0625 Q547.9844,404.0625 547.7188,403.6563 Q547.5938,403.4688 547.5938,402.7969 L546.1094,402.7969 Z " fill="#000000"/><text fill="#000000" font-family="sans-serif" font-size="14" lengthAdjust="spacing" textLength="49" x="567.75" y="407.7285">Product</text><line style="stroke:#181818;stroke-width:0.5;" x1="433" x2="719" y1="418" y2="418"/><text fill="#000000" font-family="sans-serif" font-size="14" lengthAdjust="spacing" textLength="276" x="438" y="436.5332">product_id: bigint [PK] [AUTO_INCREMENT]</text><line style="stroke:#181818;stroke-width:1.0;" x1="433" x2="719" y1="443.6094" y2="443.6094"/><text fill="#000000" font-family="sans-serif" font-size="14" lengthAdjust="spacing" textLength="78" x="438" y="462.1426">name: string</text><text fill="#000000" font-family="sans-serif" font-size="14" lengthAdjust="spacing" textLength="129" x="438" y="479.752">price: decimal(10, 2)</text><text fill="#000000" font-family="sans-serif" font-size="14" lengthAdjust="spacing" textLength="112" x="438" y="497.3613">description: string</text><text fill="#000000" font-family="sans-serif" font-size="14" lengthAdjust="spacing" textLength="88" x="438" y="514.9707">picture: BLOB</text><text fill="#000000" font-family="sans-serif" font-size="14" lengthAdjust="spacing" textLength="146" x="438" y="532.5801">type_of_product: string</text></g><!--class Products_of_orders--><g id="elem_Products_of_orders"><rect codeLine="52" fill="#F1F1F1" height="83.2188" id="Products_of_orders" rx="2.5" ry="2.5" style="stroke:#181818;stroke-width:0.5;" width="288" x="273" y="604"/><ellipse cx="350.25" cy="620" fill="#ADD1B2" rx="11" ry="11" style="stroke:#181818;stroke-width:1.0;"/><path d="M349.1094,620.7969 L349.1094,623.2969 L353.4375,623.2969 L353.4375,622.375 Q353.4375,621.7656 353.6797,621.5 Q353.9219,621.2344 354.2969,621.2344 Q354.6719,621.2344 354.9063,621.5 Q355.1406,621.7656 355.1406,622.375 L355.1406,625 L347.1406,625 Q346.5156,625 346.2578,624.7656 Q346,624.5313 346,624.1406 Q346,623.7656 346.2656,623.5313 Q346.5313,623.2969 347.1406,623.2969 L347.4063,623.2969 L347.4063,616.6406 L347.1406,616.6406 Q346.5156,616.6406 346.2578,616.4063 Q346,616.1719 346,615.7813 Q346,615.4063 346.2578,615.1719 Q346.5156,614.9375 347.1406,614.9375 L354.7656,614.9375 L354.7656,617.5313 Q354.7656,618.1406 354.5391,618.3984 Q354.3125,618.6563 353.9219,618.6563 Q353.5469,618.6563 353.3125,618.3984 Q353.0781,618.1406 353.0781,617.5313 L353.0781,616.6406 L349.1094,616.6406 L349.1094,619.0938 L350.5938,619.0938 Q350.5938,618.4375 350.7188,618.25 Q350.9844,617.8438 351.4531,617.8438 Q351.8281,617.8438 352.0625,618.1016 Q352.2969,618.3594 352.2969,618.9688 L352.2969,620.9375 Q352.2969,621.4844 352.1719,621.6719 Q351.9063,622.0625 351.4531,622.0625 Q350.9844,622.0625 350.7188,621.6563 Q350.5938,621.4688 350.5938,620.7969 L349.1094,620.7969 Z " fill="#000000"/><text fill="#000000" font-family="sans-serif" font-size="14" lengthAdjust="spacing" textLength="125" x="370.75" y="625.7285">Products_of_orders</text><line style="stroke:#181818;stroke-width:0.5;" x1="274" x2="560" y1="636" y2="636"/><text fill="#000000" font-family="sans-serif" font-size="14" lengthAdjust="spacing" textLength="258" x="279" y="654.5332">order_id: bigint[FK] [AUTO_INCREMENT]</text><text fill="#000000" font-family="sans-serif" font-size="14" lengthAdjust="spacing" textLength="276" x="279" y="672.1426">product_id: bigint [FK] [AUTO_INCREMENT]</text><line style="stroke:#181818;stroke-width:0.5;" x1="274" x2="560" y1="679.2188" y2="679.2188"/></g><!--class Product_in_inventary--><g id="elem_Product_in_inventary"><rect codeLine="56" fill="#F1F1F1" height="83.2188" id="Product_in_inventary" rx="2.5" ry="2.5" style="stroke:#181818;stroke-width:0.5;" width="288" x="674" y="604"/><ellipse cx="746.75" cy="620" fill="#ADD1B2" rx="11" ry="11" style="stroke:#181818;stroke-width:1.0;"/><path d="M745.6094,620.7969 L745.6094,623.2969 L749.9375,623.2969 L749.9375,622.375 Q749.9375,621.7656 750.1797,621.5 Q750.4219,621.2344 750.7969,621.2344 Q751.1719,621.2344 751.4063,621.5 Q751.6406,621.7656 751.6406,622.375 L751.6406,625 L743.6406,625 Q743.0156,625 742.7578,624.7656 Q742.5,624.5313 742.5,624.1406 Q742.5,623.7656 742.7656,623.5313 Q743.0313,623.2969 743.6406,623.2969 L743.9063,623.2969 L743.9063,616.6406 L743.6406,616.6406 Q743.0156,616.6406 742.7578,616.4063 Q742.5,616.1719 742.5,615.7813 Q742.5,615.4063 742.7578,615.1719 Q743.0156,614.9375 743.6406,614.9375 L751.2656,614.9375 L751.2656,617.5313 Q751.2656,618.1406 751.0391,618.3984 Q750.8125,618.6563 750.4219,618.6563 Q750.0469,618.6563 749.8125,618.3984 Q749.5781,618.1406 749.5781,617.5313 L749.5781,616.6406 L745.6094,616.6406 L745.6094,619.0938 L747.0938,619.0938 Q747.0938,618.4375 747.2188,618.25 Q747.4844,617.8438 747.9531,617.8438 Q748.3281,617.8438 748.5625,618.1016 Q748.7969,618.3594 748.7969,618.9688 L748.7969,620.9375 Q748.7969,621.4844 748.6719,621.6719 Q748.4063,622.0625 747.9531,622.0625 Q747.4844,622.0625 747.2188,621.6563 Q747.0938,621.4688 747.0938,620.7969 L745.6094,620.7969 Z " fill="#000000"/><text fill="#000000" font-family="sans-serif" font-size="14" lengthAdjust="spacing" textLength="134" x="767.25" y="625.7285">Product_in_inventary</text><line style="stroke:#181818;stroke-width:0.5;" x1="675" x2="961" y1="636" y2="636"/><text fill="#000000" font-family="sans-serif" font-size="14" lengthAdjust="spacing" textLength="276" x="680" y="654.5332">product_id: bigint [FK] [AUTO_INCREMENT]</text><text fill="#000000" font-family="sans-serif" font-size="14" lengthAdjust="spacing" textLength="270" x="680" y="672.1426">invent_id: bigint  [FK] [AUTO_INCREMENT]</text><line style="stroke:#181818;stroke-width:0.5;" x1="675" x2="961" y1="679.2188" y2="679.2188"/></g><!--link User to Order--><g id="link_User_Order"><path codeLine="60" d="M174.4544,328.835 C187.1544,348.155 186.5553,347.227 199.3753,366.737 " fill="none" id="User-Order" style="stroke:#181818;stroke-width:1.0;"/><line style="stroke:#181818;stroke-width:1.0;" x1="168.9147" x2="175.5997" y1="327.6897" y2="323.2953"/><line style="stroke:#181818;stroke-width:1.0;" x1="170.5626" x2="177.2476" y1="330.1966" y2="325.8022"/><line style="stroke:#181818;stroke-width:1.0;" x1="174.4544" x2="170.06" y1="328.835" y2="322.15"/><line style="stroke:#181818;stroke-width:1.0;" x1="204.8668" x2="214.2743" y1="375.0942" y2="378.4851"/><line style="stroke:#181818;stroke-width:1.0;" x1="204.8668" x2="204.2457" y1="375.0942" y2="385.0749"/><line style="stroke:#181818;stroke-width:1.0;" x1="204.8668" x2="209.26" y1="375.0942" y2="381.78"/><ellipse cx="201.5719" cy="370.0799" fill="none" rx="4" ry="4" style="stroke:#181818;stroke-width:1.0;"/></g><!--link Product to Products_of_orders--><g id="link_Product_Products_of_orders"><path codeLine="61" d="M503.7415,546.0326 C484.5615,567.8026 474.9595,578.7082 458.3995,597.4982 " fill="none" id="Product-Products_of_orders" style="stroke:#181818;stroke-width:1.0;"/><line style="stroke:#181818;stroke-width:1.0;" x1="503.3844" x2="509.3871" y1="540.3871" y2="545.6756"/><line style="stroke:#181818;stroke-width:1.0;" x1="501.4012" x2="507.4039" y1="542.6381" y2="547.9266"/><line style="stroke:#181818;stroke-width:1.0;" x1="503.7415" x2="509.03" y1="546.0326" y2="540.03"/><line style="stroke:#181818;stroke-width:1.0;" x1="458.3995" x2="457.6113" y1="597.4982" y2="607.4671"/><line style="stroke:#181818;stroke-width:1.0;" x1="458.3995" x2="448.6087" y1="597.4982" y2="599.5329"/><line style="stroke:#181818;stroke-width:1.0;" x1="458.3995" x2="453.11" y1="597.4982" y2="603.5"/><line style="stroke:#181818;stroke-width:1.0;" x1="462.7227" x2="456.721" y1="598.6425" y2="593.353"/></g><!--link Order to Products_of_orders--><g id="link_Order_Products_of_orders"><path codeLine="62" d="M336.1002,550.2907 C353.7202,570.8207 361.5286,579.9003 376.6486,597.5103 " fill="none" id="Order-Products_of_orders" style="stroke:#181818;stroke-width:1.0;"/><line style="stroke:#181818;stroke-width:1.0;" x1="330.4598" x2="336.5305" y1="549.8605" y2="544.6502"/><line style="stroke:#181818;stroke-width:1.0;" x1="332.4136" x2="338.4843" y1="552.137" y2="546.9268"/><line style="stroke:#181818;stroke-width:1.0;" x1="336.1002" x2="330.89" y1="550.2907" y2="544.22"/><line style="stroke:#181818;stroke-width:1.0;" x1="376.6486" x2="386.4123" y1="597.5103" y2="599.6714"/><line style="stroke:#181818;stroke-width:1.0;" x1="376.6486" x2="377.3077" y1="597.5103" y2="607.4886"/><line style="stroke:#181818;stroke-width:1.0;" x1="376.6486" x2="381.86" y1="597.5103" y2="603.58"/><line style="stroke:#181818;stroke-width:1.0;" x1="378.3805" x2="372.3109" y1="593.3872" y2="598.5986"/></g><!--link Delivery to Order--><g id="link_Delivery_Order"><path codeLine="63" d="M352.9155,323.715 C339.2555,344.495 333.014,353.9748 319.014,375.2748 " fill="none" id="Delivery-Order" style="stroke:#181818;stroke-width:1.0;"/><line style="stroke:#181818;stroke-width:1.0;" x1="351.7703" x2="358.4553" y1="318.1753" y2="322.5697"/><line style="stroke:#181818;stroke-width:1.0;" x1="350.1224" x2="356.8073" y1="320.6821" y2="325.0766"/><line style="stroke:#181818;stroke-width:1.0;" x1="352.9155" x2="357.31" y1="323.715" y2="317.03"/><line style="stroke:#181818;stroke-width:1.0;" x1="319.014" x2="319.6339" y1="375.2748" y2="385.2555"/><line style="stroke:#181818;stroke-width:1.0;" x1="319.014" x2="309.6061" y1="375.2748" y2="378.6645"/><line style="stroke:#181818;stroke-width:1.0;" x1="319.014" x2="314.62" y1="375.2748" y2="381.96"/><line style="stroke:#181818;stroke-width:1.0;" x1="323.4552" x2="316.7699" y1="375.8005" y2="371.4064"/></g><!--link Path to Delivery--><g id="link_Path_Delivery"><path codeLine="64" d="M404,116.21 C404,136.06 404,143.3 404,164.88 " fill="none" id="Path-Delivery" style="stroke:#181818;stroke-width:1.0;"/><line style="stroke:#181818;stroke-width:1.0;" x1="400" x2="408" y1="112.21" y2="112.21"/><line style="stroke:#181818;stroke-width:1.0;" x1="400" x2="408" y1="115.21" y2="115.21"/><line style="stroke:#181818;stroke-width:1.0;" x1="404" x2="404" y1="116.21" y2="108.21"/><line style="stroke:#181818;stroke-width:1.0;" x1="404" x2="410" y1="164.88" y2="172.88"/><line style="stroke:#181818;stroke-width:1.0;" x1="404" x2="398" y1="164.88" y2="172.88"/><line style="stroke:#181818;stroke-width:1.0;" x1="404" x2="404" y1="164.88" y2="172.88"/><line style="stroke:#181818;stroke-width:1.0;" x1="408" x2="400" y1="162.88" y2="162.88"/></g><!--link Product to Product_in_inventary--><g id="link_Product_Product_in_inventary"><path codeLine="65" d="M684.3426,544.8132 C713.6626,566.6832 731.6972,580.1271 756.9572,598.9671 " fill="none" id="Product-Product_in_inventary" style="stroke:#181818;stroke-width:1.0;"/><line style="stroke:#181818;stroke-width:1.0;" x1="678.7447" x2="683.5279" y1="545.6279" y2="539.2153"/><line style="stroke:#181818;stroke-width:1.0;" x1="681.1494" x2="685.9326" y1="547.4216" y2="541.009"/><line style="stroke:#181818;stroke-width:1.0;" x1="684.3426" x2="677.93" y1="544.8132" y2="540.03"/><line style="stroke:#181818;stroke-width:1.0;" x1="756.9572" x2="766.9572" y1="598.9671" y2="598.9404"/><line style="stroke:#181818;stroke-width:1.0;" x1="756.9572" x2="759.7828" y1="598.9671" y2="608.5596"/><line style="stroke:#181818;stroke-width:1.0;" x1="756.9572" x2="763.37" y1="598.9671" y2="603.75"/><line style="stroke:#181818;stroke-width:1.0;" x1="757.7455" x2="752.9626" y1="594.565" y2="600.9777"/></g><!--link Inventary to Product_in_inventary--><g id="link_Inventary_Product_in_inventary"><path codeLine="66" d="M871.3052,521.1431 C859.0352,549.5231 850.2136,569.9564 838.6836,596.6364 " fill="none" id="Inventary-Product_in_inventary" style="stroke:#181818;stroke-width:1.0;"/><line style="stroke:#181818;stroke-width:1.0;" x1="869.2211" x2="876.5642" y1="515.8842" y2="519.0589"/><line style="stroke:#181818;stroke-width:1.0;" x1="868.0305" x2="875.3736" y1="518.6378" y2="521.8126"/><line style="stroke:#181818;stroke-width:1.0;" x1="871.3052" x2="874.48" y1="521.1431" y2="513.8"/><line style="stroke:#181818;stroke-width:1.0;" x1="838.6836" x2="841.0177" y1="596.6364" y2="606.3602"/><line style="stroke:#181818;stroke-width:1.0;" x1="838.6836" x2="830.0023" y1="596.6364" y2="601.5998"/><line style="stroke:#181818;stroke-width:1.0;" x1="838.6836" x2="835.51" y1="596.6364" y2="603.98"/><line style="stroke:#181818;stroke-width:1.0;" x1="843.1488" x2="835.8052" y1="596.3873" y2="593.2137"/></g><!--SRC=[dLH1Ry8W6BtpApZEP4sSHszpqwHnKxFfoPW62-gNL6Y0kfZgVn-5jhRQwh8Ub3uUttlV0ygu1dt42yKaJX4sJsA60L2yd8rNUFcwc4y3V_BsDVmSJkOho_0y-pVoftsij0I-nHRmLV2jayscZzT2H8nmYx8zWQXEZ8bIFqBIFZuG6Uw8VEfrEtQ678WcqXI8n1gZCqBC-PjAMXeKsTWuD2pO0jSFZRe5b6XMjw4qqOagi0erbX0QBcKXx4dqzD9znhrEjMAPqMZib2YBuC3aiG1l_PoBLdn-C2CYZwuRiA-LTl3Zv3dPNxL2g6HANR1IxJqtbcTNy_b8fYJNWyBrINsCMSkKYppxrR1drT8nqRjwp_T3cnb-shBoOHjW_FDiGpE-WuobG6o2h5Z5u4LE2fg4EWyjTczLrNziKVkXeao54c8DWbyjWL0dqYmQV4m75id2jiQTfOODpwshZ6LFisgvDKs1uzP-6zdckH4EW0TGE-9_BOTQRaEpj16s7oryEdcUIFCl12fsBaDFQKCQo17RvyiRarEAmkQe5519QTEhXO3A6t-FzGi0]--></g></svg>