<?xml version="1.0" encoding="us-ascii" standalone="no"?><svg xmlns="http://www.w3.org/2000/svg" xmlns:xlink="http://www.w3.org/1999/xlink" contentStyleType="text/css" height="161px" preserveAspectRatio="none" style="width:333px;height:161px;background:#FFFFFF;" version="1.1" viewBox="0 0 333 161" width="333px" zoomAndPan="magnify"><defs/><g><ellipse cx="165.5" cy="20" fill="#222222" rx="10" ry="10" style="stroke:#222222;stroke-width:1.0;"/><polygon fill="#F1F1F1" points="105,50,226,50,238,62,226,74,105,74,93,62,105,50" style="stroke:#181818;stroke-width:0.5;"/><text fill="#0000FF" font-family="sans-serif" font-size="11" lengthAdjust="spacing" textLength="121" x="105" y="66.501">&#1042;&#1099;&#1073;&#1086;&#1088; &#1089;&#1087;&#1086;&#1089;&#1086;&#1073;&#1072; &#1087;&#1086;&#1082;&#1091;&#1087;&#1082;&#1080;</text><text fill="#000000" font-family="sans-serif" font-size="11" lengthAdjust="spacing" textLength="83" x="10" y="59.583">&#1054;&#1092;&#1083;&#1072;&#1081;&#1085; &#1087;&#1086;&#1082;&#1091;&#1087;&#1082;&#1072;</text><rect fill="#F1F1F1" height="35.0938" rx="12.5" ry="12.5" style="stroke:#181818;stroke-width:0.5;" width="106" x="30" y="84"/><text fill="#000000" font-family="sans-serif" font-size="12" lengthAdjust="spacing" textLength="86" x="40" y="106.457">&#1042;&#1093;&#1086;&#1076; &#1074; &#1084;&#1072;&#1075;&#1072;&#1079;&#1080;&#1085;</text><rect fill="#F1F1F1" height="35.0938" rx="12.5" ry="12.5" style="stroke:#181818;stroke-width:0.5;" width="149" x="173.5" y="84"/><text fill="#000000" font-family="sans-serif" font-size="12" lengthAdjust="spacing" textLength="129" x="183.5" y="106.457">&#1042;&#1093;&#1086;&#1076; &#1085;&#1072; &#1089;&#1072;&#1081;&#1090; &#1084;&#1072;&#1075;&#1072;&#1079;&#1080;&#1085;&#1072;</text><polygon fill="#F1F1F1" points="165.5,125.0938,177.5,137.0938,165.5,149.0938,153.5,137.0938,165.5,125.0938" style="stroke:#181818;stroke-width:0.5;"/><line style="stroke:#181818;stroke-width:1.0;" x1="93" x2="83" y1="62" y2="62"/><line style="stroke:#181818;stroke-width:1.0;" x1="83" x2="83" y1="62" y2="84"/><polygon fill="#181818" points="79,74,83,84,87,74,83,78" style="stroke:#181818;stroke-width:1.0;"/><line style="stroke:#181818;stroke-width:1.0;" x1="238" x2="248" y1="62" y2="62"/><line style="stroke:#181818;stroke-width:1.0;" x1="248" x2="248" y1="62" y2="84"/><polygon fill="#181818" points="244,74,248,84,252,74,248,78" style="stroke:#181818;stroke-width:1.0;"/><line style="stroke:#181818;stroke-width:1.0;" x1="83" x2="83" y1="119.0938" y2="137.0938"/><line style="stroke:#181818;stroke-width:1.0;" x1="83" x2="153.5" y1="137.0938" y2="137.0938"/><polygon fill="#181818" points="143.5,133.0938,153.5,137.0938,143.5,141.0938,147.5,137.0938" style="stroke:#181818;stroke-width:1.0;"/><line style="stroke:#181818;stroke-width:1.0;" x1="248" x2="248" y1="119.0938" y2="137.0938"/><line style="stroke:#181818;stroke-width:1.0;" x1="248" x2="177.5" y1="137.0938" y2="137.0938"/><polygon fill="#181818" points="187.5,133.0938,177.5,137.0938,187.5,141.0938,183.5,137.0938" style="stroke:#181818;stroke-width:1.0;"/><line style="stroke:#181818;stroke-width:1.0;" x1="165.5" x2="165.5" y1="30" y2="50"/><polygon fill="#181818" points="161.5,40,165.5,50,169.5,40,165.5,44" style="stroke:#181818;stroke-width:1.0;"/><!--SRC=[NOrB3e9044JtdAAMS0KmtaND64acaZ3ZNloit7a0pp2eYOWENg7wHhPBwQJJlzTLpizgdvJBTBAeR5NdcDkDmPHdER7b85j8muys3GTT1Fm6zhBNshFBK3galCY1BmO-6V-1aC6lp3g1HgwYHxtTmIluLloc-M37M2J6EeCn5jLFZLLNTgCFXW9V]--></g></svg>